<?xml version="1.0" standalone="no"?>
<!DOCTYPE svg PUBLIC "-//W3C//DTD SVG 20010904//EN"
 "http://www.w3.org/TR/2001/REC-SVG-20010904/DTD/svg10.dtd">
<svg version="1.0" xmlns="http://www.w3.org/2000/svg"
 width="240.000000pt" height="240.000000pt" viewBox="0 0 240.000000 240.000000"
 preserveAspectRatio="xMidYMid meet">
<metadata>
Created by potrace 1.11, written by Peter Selinger 2001-2013
</metadata>
<g transform="translate(0.000000,240.000000) scale(0.100000,-0.100000)"
fill="#000000" stroke="none">
<path d="M1753 1433 c-18 -7 -16 -58 2 -73 22 -19 64 -4 71 25 10 42 -27 67
-73 48z"/>
<path d="M2231 1392 c-6 -2 -11 -21 -11 -43 0 -37 -2 -39 -31 -39 -28 0 -30
-2 -27 -32 2 -21 9 -34 18 -34 8 -1 21 -2 28 -3 8 -1 12 -24 12 -82 0 -89 15
-129 57 -148 26 -12 66 -14 99 -5 19 5 21 9 12 38 -9 27 -14 32 -37 29 -44 -6
-53 8 -54 86 0 39 3 74 6 78 4 4 24 6 45 5 37 -3 38 -2 38 33 0 35 -1 35 -43
35 -45 0 -46 1 -44 58 0 30 -2 32 -28 30 -15 -1 -33 -4 -40 -6z"/>
<path d="M145 1320 c-84 -18 -124 -62 -132 -145 -8 -75 22 -136 81 -164 65
-32 143 -25 188 16 16 14 15 17 -10 38 -23 20 -29 21 -56 10 -66 -27 -126 14
-126 84 0 66 61 106 124 83 27 -11 33 -9 55 12 l23 24 -26 17 c-34 23 -84 33
-121 25z"/>
<path d="M1990 1320 c-108 -23 -161 -141 -110 -245 42 -88 177 -113 252 -48
16 14 15 17 -9 37 -24 21 -29 22 -64 9 -96 -33 -162 76 -90 148 31 31 53 35
97 19 24 -9 31 -7 52 14 l24 24 -26 17 c-32 21 -91 33 -126 25z"/>
<path d="M395 1307 c-159 -73 -103 -324 70 -316 62 3 97 19 130 63 53 70 36
185 -36 238 -33 25 -124 33 -164 15z m127 -87 c27 -28 30 -36 25 -73 -7 -53
-46 -90 -87 -84 -48 8 -69 25 -76 63 -19 103 69 163 138 94z"/>
<path d="M775 1300 c-46 -24 -46 -23 -42 -7 1 7 -12 13 -34 15 l-36 3 -1 -155
-1 -156 40 0 39 0 0 90 c0 111 14 146 64 155 41 8 74 -7 86 -41 6 -14 10 -66
10 -115 l0 -90 38 3 37 3 0 110 c-1 125 -15 163 -71 190 -43 20 -82 19 -129
-5z"/>
<path d="M1137 1301 c-32 -16 -39 -17 -44 -5 -3 8 -19 14 -38 14 l-34 0 1
-155 1 -155 38 0 39 0 0 91 c0 90 9 123 39 146 24 18 66 15 92 -6 22 -18 24
-28 27 -126 l4 -106 36 3 37 3 1 94 c1 52 -4 109 -9 127 -24 80 -114 115 -190
75z"/>
<path d="M1436 1298 c-70 -36 -96 -139 -57 -225 37 -80 150 -107 222 -54 16
12 29 18 28 14 -4 -25 4 -33 36 -33 l35 0 0 155 0 155 -39 0 c-34 0 -39 -3
-36 -19 3 -18 0 -17 -33 5 -43 29 -101 30 -156 2z m137 -59 c53 -24 63 -105
19 -149 -57 -57 -152 -16 -152 64 1 76 64 116 133 85z"/>
<path d="M1745 1158 l0 -153 39 0 38 0 0 140 c0 77 0 146 -1 153 -1 7 -16 12
-39 12 l-37 0 0 -152z"/>
</g>
</svg>
